<?xml version="1.0" standalone="no"?>
<svg xmlns="http://www.w3.org/2000/svg" viewBox="0 0 146.232 24.36" width="146.232" height="24.36"><g fill="#000000" color="#000000" transform="translate(0, 0) scale(0.58)"><svg width="50.0" height="42.0" x="0.0" y="0.0" viewBox="0 0 50 42"><path fill="currentColor" fill-rule="nonzero" d="M21.3 13.56l5.81 12.46-10.95-2.3-5.81-12.46 10.95 2.3zm20.86-9.73l5.81 12.46-10.95-2.3-5.81-12.46 10.95 2.3zm-8.91 36.83L8.44 36.19 16 24.99l12.1 2.54c.05.01.09.01.13.01.09 0 .18-.02.27-.06.01 0 .01-.01.01-.01.03-.01.05-.04.08-.06.03-.02.05-.05.08-.07.03-.03.07-.05.09-.08l8.11-12.01 11.19 2.35-14.81 23.06zm16.45-23.3c.01-.02.02-.03.03-.05.01-.05-.02-.08-.03-.13 0-.07.01-.13-.02-.2-.01-.02.01-.05-.01-.07L43.19 3c-.01-.02-.03-.02-.03-.03-.04-.07-.11-.11-.18-.16-.07-.05-.12-.11-.2-.14-.02-.01-.02-.02-.04-.03L30.22.01c-.04-.01-.08.03-.13.03-.07 0-.13 0-.19.02-.03.01-.06-.01-.08 0-.01.01-.02.03-.03.03-.05.03-.08.07-.12.12-.03.03-.08.03-.11.07l-8.11 12.01-12.1-2.54c-.05-.01-.08.02-.13.02-.07 0-.12 0-.19.02-.03.01-.06-.01-.08.01-.02.01-.02.03-.03.03-.05.03-.08.07-.12.12-.03.03-.08.03-.11.07L.34 22.37c-.02.02 0 .05-.02.08-.04.08-.04.15-.05.23-.01.08-.02.16.01.24.02.03 0 .05.01.08l6.49 13.91c.01.02.03.03.05.05.02.04.04.06.07.09.03.03.05.06.08.08.01.01.01.03.02.04 0 0 .01 0 .01.01.05.03.11.04.17.05.03.01.04.04.06.04l26.2 4.72a.61.61 0 0 0 .48-.12c.03-.02.05-.05.08-.07.03-.03.07-.05.1-.09l15.54-24.18c.02-.02 0-.05.01-.07.02-.04.03-.07.05-.1z"></path></svg></g><line x1="41" y1="1" x2="41" y2="23.36" stroke="#0fdcef" stroke-linecap="round"></line><path fill="#0fdcef" fill-rule="nonzero" d="M2.81 22.27L0.12 22.27Q0 22.27 0 22.15L0 22.15L0.05 5.66Q0.05 5.57 0.14 5.57L0.14 5.57L4.75 5.57Q6.96 5.57 8.24 6.91Q9.53 8.26 9.53 10.56L9.53 10.56Q9.53 12.26 8.86 13.51Q8.18 14.76 7.10 15.43Q6.02 16.10 4.75 16.10L4.75 16.10L2.93 16.10L2.93 22.15Q2.93 22.27 2.81 22.27L2.81 22.27ZM2.93 8.45L2.93 13.20L4.75 13.20Q5.52 13.20 6.08 12.47Q6.65 11.74 6.65 10.56L6.65 10.56Q6.65 9.62 6.14 9.02Q5.64 8.42 4.75 8.42L4.75 8.42L2.93 8.45ZM8.95 22.15L8.95 22.15L11.93 5.66Q11.95 5.57 12.05 5.57L12.05 5.57L15.53 5.57Q15.62 5.57 15.65 5.66L15.65 5.66L18.50 22.15Q18.53 22.27 18.41 22.27L18.41 22.27L15.74 22.27Q15.65 22.27 15.62 22.15L15.62 22.15L15.36 20.40L12.10 20.40L11.83 22.15Q11.81 22.27 11.71 22.27L11.71 22.27L9.05 22.27Q8.95 22.27 8.95 22.15ZM13.66 11.09L12.58 17.83L14.88 17.83L13.90 11.09L13.75 10.20L13.66 11.09ZM14.69 4.34L12.29 4.34Q12.17 4.34 12.19 4.25L12.19 4.25L14.11 0.10Q14.14 0 14.23 0L14.23 0L16.97 0Q17.11 0 17.06 0.10L17.06 0.10L14.83 4.25Q14.78 4.34 14.69 4.34L14.69 4.34ZM23.90 22.51L23.90 22.51Q22.61 22.51 21.55 21.86Q20.50 21.22 19.86 20.12Q19.22 19.03 19.22 17.69L19.22 17.69L19.22 10.08Q19.22 8.78 19.86 7.69Q20.50 6.60 21.56 5.95Q22.63 5.30 23.90 5.30L23.90 5.30Q25.22 5.30 26.29 5.94Q27.36 6.58 27.98 7.66Q28.61 8.74 28.61 10.08L28.61 10.08L28.61 11.18Q28.61 11.28 28.49 11.28L28.49 11.28L25.80 11.28Q25.70 11.28 25.70 11.18L25.70 11.18L25.70 10.27Q25.70 9.36 25.19 8.76Q24.67 8.16 23.90 8.16L23.90 8.16Q23.21 8.16 22.67 8.74Q22.13 9.31 22.13 10.08L22.13 10.08L22.13 17.69Q22.13 18.48 22.66 19.04Q23.18 19.61 23.90 19.61L23.90 19.61Q24.67 19.61 25.19 19.06Q25.70 18.50 25.70 17.69L25.70 17.69L25.70 16.51L24.02 16.51Q23.90 16.51 23.90 16.39L23.90 16.39L23.90 13.70Q23.90 13.58 24.02 13.58L24.02 13.58L28.51 13.58Q28.61 13.58 28.61 13.70L28.61 13.70L28.61 17.69Q28.61 19.03 27.97 20.12Q27.34 21.22 26.28 21.86Q25.22 22.51 23.90 22.51ZM33.14 22.27L30.43 22.27Q30.31 22.27 30.31 22.15L30.31 22.15L30.34 5.66Q30.34 5.57 30.43 5.57L30.43 5.57L33.12 5.57Q33.22 5.57 33.22 5.66L33.22 5.66L33.24 22.15Q33.24 22.27 33.14 22.27L33.14 22.27ZM37.97 22.27L35.57 22.27Q35.38 22.27 35.38 22.10L35.38 22.10L35.35 5.76Q35.35 5.57 35.54 5.57L35.54 5.57L37.70 5.57L41.76 15.02L41.64 5.76Q41.64 5.57 41.86 5.57L41.86 5.57L44.23 5.57Q44.38 5.57 44.38 5.76L44.38 5.76L44.40 22.13Q44.40 22.27 44.28 22.27L44.28 22.27L42.17 22.27L38.02 13.44L38.18 22.08Q38.18 22.27 37.97 22.27L37.97 22.27ZM45.67 22.15L45.67 22.15L48.65 5.66Q48.67 5.57 48.77 5.57L48.77 5.57L52.25 5.57Q52.34 5.57 52.37 5.66L52.37 5.66L55.22 22.15Q55.25 22.27 55.13 22.27L55.13 22.27L52.46 22.27Q52.37 22.27 52.34 22.15L52.34 22.15L52.08 20.40L48.82 20.40L48.55 22.15Q48.53 22.27 48.43 22.27L48.43 22.27L45.77 22.27Q45.67 22.27 45.67 22.15ZM50.38 11.09L49.30 17.83L51.60 17.83L50.62 11.09L50.47 10.20L50.38 11.09ZM65.64 22.27L62.74 22.27Q62.64 22.27 62.62 22.15L62.62 22.15L59.78 5.66Q59.76 5.57 59.86 5.57L59.86 5.57L62.54 5.57Q62.64 5.57 62.66 5.66L62.66 5.66L64.20 16.51L65.78 5.66Q65.81 5.57 65.93 5.57L65.93 5.57L68.09 5.57Q68.18 5.57 68.21 5.66L68.21 5.66L69.77 16.51L71.33 5.66Q71.35 5.57 71.45 5.57L71.45 5.57L74.11 5.57Q74.23 5.57 74.21 5.66L74.21 5.66L71.35 22.15Q71.33 22.20 71.28 22.24Q71.23 22.27 71.23 22.27L71.23 22.27L68.33 22.27Q68.26 22.27 68.21 22.15L68.21 22.15L66.98 13.54L65.76 22.15Q65.74 22.27 65.64 22.27L65.64 22.27ZM83.47 22.27L75.72 22.27Q75.62 22.27 75.62 22.15L75.62 22.15L75.65 5.66Q75.65 5.57 75.74 5.57L75.74 5.57L83.45 5.57Q83.54 5.57 83.54 5.69L83.54 5.69L83.54 8.38Q83.54 8.47 83.45 8.47L83.45 8.47L78.53 8.47L78.53 12.22L83.45 12.22Q83.54 12.22 83.54 12.31L83.54 12.31L83.57 15.02Q83.57 15.12 83.47 15.12L83.47 15.12L78.53 15.12L78.53 19.32L83.47 19.32Q83.57 19.32 83.57 19.44L83.57 19.44L83.57 22.18Q83.57 22.27 83.47 22.27L83.47 22.27ZM90.10 22.27L85.80 22.27Q85.70 22.27 85.70 22.15L85.70 22.15L85.75 5.66Q85.75 5.57 85.85 5.57L85.85 5.57L90.46 5.57Q91.82 5.57 92.90 6.23Q93.98 6.89 94.61 7.97Q95.23 9.05 95.23 10.32L95.23 10.32Q95.23 11.35 94.76 12.24Q94.30 13.13 93.65 13.68L93.65 13.68Q94.34 14.38 94.73 15.29Q95.11 16.20 95.11 17.21L95.11 17.21Q95.11 18.60 94.44 19.75Q93.77 20.90 92.63 21.59Q91.49 22.27 90.10 22.27L90.10 22.27ZM88.63 8.42L88.63 12.19L90.46 12.19Q91.30 12.19 91.81 11.60Q92.33 11.02 92.33 10.32L92.33 10.32Q92.33 9.55 91.78 8.99Q91.22 8.42 90.46 8.42L90.46 8.42L88.63 8.42ZM88.63 15.10L88.61 19.34L90.10 19.34Q90.96 19.34 91.58 18.71Q92.21 18.07 92.21 17.21L92.21 17.21Q92.21 16.34 91.58 15.72Q90.96 15.10 90.10 15.10L90.10 15.10L88.63 15.10Z" transform="translate(51, 1.044)"></path></svg>